# xmcd
#
# Track frame offsets:
#	150
#	16280
#	30606
#	45935
#	70737
#	86251
#	104838
#	123281
#	135671
#	150066
#	164168
#	177384
#	190103
#	210551
#	225414
#	245574
#
# Disc length: 3505 seconds
#
# Revision: 669457637
# Processed by: cddbd v1.5.2PL0 Copyright (c) Steve Scherf et al.
# Submitted via: audiograbber 1.83.01
#
DISCID=c70daf10
DTITLE=Miranda Lambert - Platinum
DYEAR=2014
DGENRE=Country
TTITLE0=Girls
TTITLE1=Platinum
TTITLE2=Little Red Wagon
TTITLE3=Smokin' And Drinkin' (featuring Little Big Town)
TTITLE4=Priscilla
TTITLE5=Automatic
TTITLE6=Bathroom Sink
TTITLE7=Old Shit
TTITLE8=All That's Left (featuring The Time Jumpers)
TTITLE9=Gravity Is A Bitch
TTITLE10=Babies Makin' Babies
TTITLE11=Somethin' Bad (Duet with Carrie Underwood)
TTITLE12=Holding On To You
TTITLE13=Two Rings Shy
TTITLE14=Hard Staying Sober
TTITLE15=Another Sunday In The South
EXTD=
EXTT0=
EXTT1=
EXTT2=
EXTT3=
EXTT4=
EXTT5=
EXTT6=
EXTT7=
EXTT8=
EXTT9=
EXTT10=
EXTT11=
EXTT12=
EXTT13=
EXTT14=
EXTT15=
PLAYORDER=
